<svg width="16" height="17" viewBox="0 0 16 17" fill="none" xmlns="http://www.w3.org/2000/svg">
<g clip-path="url(#clip0_436_4098)">
<path fill-rule="evenodd" clip-rule="evenodd" d="M10.6664 1.47601C11.0346 1.47601 11.3331 1.77449 11.3331 2.14268V2.80934H12.6666C13.7712 2.80934 14.6666 3.70477 14.6666 4.80934V7.47601V14.1427C14.6666 15.2472 13.7712 16.1427 12.6666 16.1427H3.33325C2.22868 16.1427 1.33325 15.2472 1.33325 14.1427V7.47601V4.80934C1.33325 3.70477 2.22868 2.80934 3.33325 2.80934H4.66626V2.1427C4.66626 1.77451 4.96474 1.47603 5.33293 1.47603C5.70112 1.47603 5.99959 1.77451 5.99959 2.1427V2.80934H9.99976V2.14268C9.99976 1.77449 10.2982 1.47601 10.6664 1.47601ZM4.66626 4.14267V4.80936C4.66626 5.17755 4.96474 5.47603 5.33293 5.47603C5.70112 5.47603 5.99959 5.17755 5.99959 4.80936V4.14267H9.99976V4.80935C9.99976 5.17754 10.2982 5.47601 10.6664 5.47601C11.0346 5.47601 11.3331 5.17754 11.3331 4.80935V4.14267H12.6666C13.0348 4.14267 13.3333 4.44115 13.3333 4.80934V6.80934H2.66659V4.80934C2.66659 4.44115 2.96506 4.14267 3.33325 4.14267H4.66626ZM13.3333 8.14267V14.1427C13.3333 14.5109 13.0348 14.8093 12.6666 14.8093H3.33325C2.96506 14.8093 2.66659 14.5109 2.66659 14.1427V8.14267H13.3333Z" fill="#67737E"/>
</g>
<defs>
<clipPath id="clip0_436_4098">
<rect width="16" height="16" fill="white" transform="translate(0 0.809326)"/>
</clipPath>
</defs>
</svg>
