<svg width="16" height="17" viewBox="0 0 16 17" fill="none" xmlns="http://www.w3.org/2000/svg">
<path d="M14 8.47626C14.0023 9.35617 13.7967 10.2242 13.4 11.0096C12.9296 11.9508 12.2065 12.7424 11.3116 13.2958C10.4168 13.8492 9.3855 14.1425 8.33333 14.1429C7.45342 14.1452 6.58541 13.9396 5.8 13.5429L2 14.8096L3.26667 11.0096C2.86995 10.2242 2.66437 9.35617 2.66667 8.47626C2.66707 7.42409 2.96041 6.39282 3.51381 5.49796C4.06722 4.60309 4.85884 3.87997 5.8 3.40959C6.58541 3.01288 7.45342 2.8073 8.33333 2.80959H8.66667C10.0562 2.88625 11.3687 3.47276 12.3528 4.45683C13.3368 5.44089 13.9233 6.75336 14 8.14292V8.47626Z" stroke="white" stroke-width="1.33333" stroke-linecap="round" stroke-linejoin="round"/>
</svg>
