<svg width="40" height="41" viewBox="0 0 40 41" fill="none" xmlns="http://www.w3.org/2000/svg">
<g opacity="0.6">
<circle cx="20" cy="20.4351" r="20" fill="#1600E5"/>
<path d="M28.8401 13.0452C28.3294 12.5342 27.7229 12.1288 27.0555 11.8523C26.388 11.5757 25.6726 11.4333 24.9501 11.4333C24.2276 11.4333 23.5122 11.5757 22.8448 11.8523C22.1773 12.1288 21.5709 12.5342 21.0601 13.0452L20.0001 14.1052L18.9401 13.0452C17.9084 12.0135 16.5092 11.4339 15.0501 11.4339C13.5911 11.4339 12.1918 12.0135 11.1601 13.0452C10.1284 14.0769 9.54883 15.4761 9.54883 16.9352C9.54883 18.3942 10.1284 19.7935 11.1601 20.8252L12.2201 21.8852L20.0001 29.6652L27.7801 21.8852L28.8401 20.8252C29.3511 20.3144 29.7565 19.708 30.033 19.0405C30.3096 18.3731 30.4519 17.6577 30.4519 16.9352C30.4519 16.2127 30.3096 15.4973 30.033 14.8298C29.7565 14.1624 29.3511 13.5559 28.8401 13.0452Z" fill="white" stroke="#1600E5" stroke-width="1.33333" stroke-linecap="round" stroke-linejoin="round"/>
</g>
</svg>
