<svg width="24" height="24" viewBox="0 0 24 24" fill="none" xmlns="http://www.w3.org/2000/svg">
<rect width="24" height="24" rx="12" fill="#332600"/>
<path d="M10.0028 12.0307C10.0028 10.9252 10.8985 10.0288 12.0037 10.0288C13.1089 10.0288 14.0051 10.9252 14.0051 12.0307C14.0051 13.1362 13.1089 14.0327 12.0037 14.0327C10.8985 14.0327 10.0028 13.1362 10.0028 12.0307ZM8.92095 12.0307C8.92095 13.7338 10.3011 15.1144 12.0037 15.1144C13.7063 15.1144 15.0865 13.7338 15.0865 12.0307C15.0865 10.3276 13.7063 8.94706 12.0037 8.94706C10.3011 8.94706 8.92095 10.3276 8.92095 12.0307ZM14.4881 8.82479C14.488 8.96732 14.5302 9.10666 14.6094 9.2252C14.6885 9.34374 14.801 9.43615 14.9326 9.49075C15.0642 9.54535 15.209 9.55968 15.3488 9.53193C15.4886 9.50418 15.617 9.43559 15.7178 9.33485C15.8186 9.23411 15.8872 9.10573 15.9151 8.96595C15.9429 8.82617 15.9287 8.68127 15.8742 8.54957C15.8198 8.41786 15.7275 8.30528 15.609 8.22605C15.4906 8.14681 15.3513 8.10449 15.2088 8.10444H15.2085C15.0175 8.10453 14.8344 8.18044 14.6993 8.3155C14.5642 8.45057 14.4883 8.63374 14.4881 8.82479ZM9.57827 16.9189C8.99294 16.8923 8.6748 16.7947 8.46337 16.7123C8.18308 16.6032 7.98309 16.4732 7.77282 16.2631C7.56255 16.0531 7.43239 15.8532 7.32375 15.5729C7.24133 15.3615 7.14383 15.0431 7.11722 14.4576C7.08812 13.8246 7.08231 13.6345 7.08231 12.0308C7.08231 10.4271 7.0886 10.2374 7.11722 9.6039C7.14388 9.0184 7.2421 8.70069 7.32375 8.48868C7.43287 8.2083 7.56283 8.00826 7.77282 7.79792C7.9828 7.58759 8.1826 7.4574 8.46337 7.34873C8.6747 7.26628 8.99294 7.16876 9.57827 7.14214C10.2111 7.11303 10.4012 7.10722 12.0037 7.10722C13.6063 7.10722 13.7965 7.11351 14.4299 7.14214C15.0152 7.16881 15.3328 7.26705 15.5448 7.34873C15.8251 7.4574 16.0251 7.58788 16.2353 7.79792C16.4456 8.00797 16.5753 8.2083 16.6844 8.48868C16.7668 8.70007 16.8643 9.0184 16.8909 9.6039C16.92 10.2374 16.9259 10.4271 16.9259 12.0308C16.9259 13.6345 16.92 13.8241 16.8909 14.4576C16.8643 15.0431 16.7663 15.3614 16.6844 15.5729C16.5753 15.8532 16.4453 16.0533 16.2353 16.2631C16.0254 16.473 15.8251 16.6032 15.5448 16.7123C15.3335 16.7948 15.0152 16.8923 14.4299 16.9189C13.7971 16.948 13.607 16.9538 12.0037 16.9538C10.4005 16.9538 10.2109 16.948 9.57827 16.9189ZM9.52856 6.06176C8.88944 6.09087 8.45271 6.19224 8.07132 6.34069C7.67633 6.494 7.34195 6.69967 7.00781 7.03337C6.67368 7.36708 6.46859 7.70208 6.31534 8.09718C6.16693 8.47893 6.06559 8.91554 6.03648 9.55484C6.00689 10.1952 6.00012 10.3999 6.00012 12.0307C6.00012 13.6616 6.00689 13.8663 6.03648 14.5066C6.06559 15.146 6.16693 15.5825 6.31534 15.9643C6.46859 16.3591 6.67373 16.6945 7.00781 17.0281C7.3419 17.3616 7.67633 17.567 8.07132 17.7208C8.45343 17.8692 8.88944 17.9706 9.52856 17.9997C10.169 18.0288 10.3733 18.0361 12.0037 18.0361C13.6341 18.0361 13.8388 18.0293 14.4789 17.9997C15.1181 17.9706 15.5545 17.8692 15.9361 17.7208C16.3309 17.567 16.6655 17.3618 16.9996 17.0281C17.3338 16.6944 17.5384 16.3591 17.6921 15.9643C17.8405 15.5825 17.9423 15.1459 17.971 14.5066C18.0001 13.8658 18.0068 13.6616 18.0068 12.0307C18.0068 10.3999 18.0001 10.1952 17.971 9.55484C17.9419 8.91549 17.8405 8.47869 17.6921 8.09718C17.5384 7.70232 17.3332 7.36761 16.9996 7.03337C16.666 6.69914 16.3309 6.494 15.9366 6.34069C15.5545 6.19224 15.118 6.09039 14.4794 6.06176C13.8392 6.03265 13.6346 6.02539 12.0042 6.02539C10.3738 6.02539 10.169 6.03216 9.52856 6.06176Z" fill="white"/>
</svg>
