<svg width="24" height="24" viewBox="0 0 24 24" fill="none" xmlns="http://www.w3.org/2000/svg">
<rect width="24" height="24" rx="12" fill="#332600"/>
<path d="M9.23934 16.8632V10.3801H7.08638V16.8632H9.23957H9.23934ZM8.16331 9.4951C8.91394 9.4951 9.38125 8.99727 9.38125 8.37513C9.3672 7.73881 8.91394 7.25488 8.17758 7.25488C7.44073 7.25488 6.95947 7.73881 6.95947 8.37507C6.95947 8.99721 7.42662 9.49504 8.1492 9.49504H8.16314L8.16331 9.4951ZM10.431 16.8632H12.5838V13.2431C12.5838 13.0496 12.5979 12.8556 12.6548 12.7174C12.8103 12.3301 13.1646 11.9292 13.7595 11.9292C14.5383 11.9292 14.85 12.5237 14.85 13.3953V16.8632H17.0028V13.146C17.0028 11.1547 15.9408 10.2281 14.5244 10.2281C13.3631 10.2281 12.853 10.8778 12.5697 11.3202H12.584V10.3803H10.4312C10.4593 10.9885 10.431 16.8634 10.431 16.8634L10.431 16.8632Z" fill="white"/>
</svg>
