<svg width="158" height="40" viewBox="0 0 158 40" fill="none" xmlns="http://www.w3.org/2000/svg">
<path d="M27.4961 39.299V21.317H30.0396V22.3768C30.4267 21.9681 30.8675 21.6548 31.3403 21.452C31.8209 21.2468 32.3234 21.1432 32.8289 21.1451C33.4992 21.1397 34.1632 21.3152 34.7792 21.6607C35.3738 21.9927 35.9146 22.4697 36.3726 23.0663C36.8288 23.6662 37.1904 24.3773 37.437 25.1593C37.6975 25.9822 37.8289 26.8651 37.8236 27.7557C37.8286 28.6447 37.6938 29.5257 37.4276 30.3438C37.176 31.1252 36.8114 31.8359 36.3538 32.4368C35.8927 33.0363 35.3446 33.5093 34.7416 33.8281C34.1113 34.1675 33.4355 34.3393 32.7538 34.3334C32.2772 34.3345 31.803 34.2477 31.345 34.0756C30.895 33.9082 30.4662 33.6552 30.0725 33.3248V39.3092L27.4961 39.299ZM32.4141 24.0259C31.9695 24.0206 31.5282 24.1255 31.1134 24.3348C30.7218 24.5313 30.368 24.8379 30.0772 25.233V30.2845C30.371 30.6599 30.7204 30.953 31.104 31.1458C31.5211 31.3607 31.9658 31.4691 32.4141 31.465C32.791 31.4757 33.1656 31.3865 33.5154 31.2025C33.8651 31.0186 34.1827 30.7439 34.4489 30.3949C34.9811 29.6882 35.2786 28.7356 35.2769 27.7439C35.2751 26.7522 34.9742 25.8015 34.4395 25.0979C34.1742 24.7507 33.8582 24.4769 33.5102 24.2927C33.1622 24.1085 32.7895 24.0177 32.4141 24.0259Z" fill="black"/>
<path d="M48.4381 32.6172C47.3388 33.8551 45.9305 34.5126 44.4849 34.4628C43.7753 34.4701 43.0715 34.2938 42.4135 33.944C41.7945 33.6191 41.2283 33.1416 40.7451 32.5372C40.2639 31.925 39.8818 31.1908 39.6218 30.3787C39.3618 29.5667 39.2293 28.6937 39.2323 27.8124C39.2278 26.9192 39.3585 26.0338 39.6167 25.208C39.9947 23.9991 40.6381 22.9665 41.4644 22.2427C42.2908 21.5189 43.2624 21.1369 44.2546 21.1455C44.9154 21.1341 45.5703 21.3096 46.1751 21.6603C46.7555 22.0027 47.2783 22.4942 47.7128 23.106C48.155 23.74 48.4987 24.482 48.7244 25.29C48.9722 26.1712 49.0961 27.1044 49.0902 28.0441V28.9321H41.8189C41.9801 29.7168 42.3383 30.4065 42.8352 30.8884C43.3436 31.387 43.9635 31.6482 44.597 31.6308C45.0056 31.6348 45.4115 31.5424 45.7954 31.358C46.1513 31.1933 46.4772 30.9329 46.7525 30.5931L48.4381 32.6172ZM44.2032 23.9263C43.6494 23.9106 43.1102 24.1606 42.6858 24.6297C42.2496 25.1225 41.9416 25.783 41.8049 26.5184H46.5829C46.4358 25.7929 46.1254 25.143 45.6927 24.6543C45.2796 24.1775 44.7476 23.9183 44.1986 23.9263H44.2032Z" fill="black"/>
<path d="M50.968 39.299V21.317H53.5115V22.3768C53.8987 21.9681 54.3394 21.6547 54.8123 21.452C55.2928 21.2468 55.7953 21.1432 56.3008 21.1451C56.9716 21.1397 57.6361 21.3152 58.2527 21.6607C58.846 21.9935 59.3857 22.4704 59.8429 23.0663C60.2997 23.6656 60.6614 24.3769 60.9073 25.1593C61.1691 25.9818 61.3011 26.8649 61.2955 27.7557C61.3005 28.6447 61.1657 29.5257 60.8995 30.3438C60.6479 31.1252 60.2833 31.8359 59.8257 32.4368C59.3649 33.0358 58.8173 33.5088 58.2151 33.8281C57.5842 34.1675 56.9079 34.3393 56.2257 34.3334C55.7492 34.3345 55.2749 34.2477 54.817 34.0756C54.3669 33.9082 53.9382 33.6552 53.5444 33.3248V39.3092L50.968 39.299ZM55.886 24.0259C55.4419 24.0205 55.0011 24.1253 54.5869 24.3348C54.1948 24.5312 53.8405 24.8378 53.5491 25.233V30.2845C53.8436 30.6599 54.1935 30.953 54.5775 31.1458C54.994 31.3609 55.4382 31.4692 55.886 31.465C56.2629 31.4757 56.6376 31.3865 56.9873 31.2025C57.3371 31.0186 57.6546 30.7439 57.9208 30.3949C58.4542 29.689 58.7525 28.7361 58.7507 27.7439C58.749 26.7517 58.4473 25.8007 57.9114 25.0979C57.6461 24.7507 57.3301 24.4769 56.9821 24.2927C56.6342 24.1085 56.2614 24.0177 55.886 24.0259Z" fill="black"/>
<path d="M62.7039 39.3092V21.3171H65.3642V22.3775C65.7689 21.9686 66.2296 21.655 66.7239 21.4522C67.2261 21.2469 67.7514 21.1432 68.2798 21.1451C68.9805 21.1397 69.6745 21.3153 70.3185 21.661C70.9398 21.9937 71.505 22.471 71.9841 23.0674C72.4604 23.6681 72.8383 24.3795 73.0966 25.1616C73.3689 25.9849 73.5064 26.8683 73.5008 27.7594C73.5052 28.6488 73.3644 29.5301 73.0868 30.349C72.8222 31.1263 72.4419 31.8335 71.9661 32.4329C71.4835 33.0319 70.9106 33.505 70.2808 33.825C69.6219 34.1646 68.9155 34.3365 68.2029 34.3306C67.7048 34.3316 67.2091 34.2448 66.7304 34.0727C66.26 33.9051 65.8118 33.652 65.4002 33.3214V39.3092H62.7039ZM67.8463 24.0275C67.3815 24.0223 66.9202 24.1272 66.4866 24.3366C66.0773 24.5332 65.7075 24.84 65.4035 25.2353V30.2896C65.7104 30.6657 66.0757 30.959 66.4768 31.1514C66.9128 31.3665 67.3776 31.4749 67.8463 31.4708C68.2403 31.482 68.632 31.3929 68.9977 31.2089C69.3633 31.0248 69.6952 30.7497 69.9732 30.4002C70.5308 29.6938 70.8426 28.7404 70.8407 27.7476C70.8389 26.7549 70.5235 25.8033 69.9634 25.1002C69.6863 24.7524 69.356 24.4781 68.9922 24.2938C68.6284 24.1095 68.2387 24.0189 67.8463 24.0275Z" fill="black"/>
<path d="M84.0806 32.6176C82.9284 33.8557 81.4521 34.5131 79.9369 34.4627C79.1939 34.47 78.457 34.2938 77.7681 33.9441C77.1192 33.6202 76.5257 33.1428 76.02 32.5377C75.5255 31.9391 75.1318 31.2217 74.8622 30.4281C74.5796 29.6027 74.4358 28.7128 74.4398 27.8142C74.4352 26.9213 74.5721 26.0362 74.8426 25.2106C75.0965 24.4164 75.4738 23.6937 75.9522 23.0848C76.4307 22.4758 77.0009 21.9928 77.6295 21.6639C78.2854 21.3169 78.9905 21.1404 79.7021 21.1452C80.3954 21.1389 81.0816 21.32 81.7144 21.6762C82.322 22.0185 82.8692 22.5099 83.3239 23.1215C83.7878 23.7548 84.1479 24.4967 84.3839 25.3049C84.6442 26.1855 84.7741 27.1187 84.7671 28.0582V28.9459H77.15C77.3186 29.7273 77.6921 30.4143 78.21 30.8955C78.7426 31.3939 79.3921 31.6551 80.056 31.6377C80.4841 31.6415 80.9093 31.5491 81.3116 31.365C81.6842 31.2008 82.0253 30.9403 82.3129 30.6003L84.0806 32.6176ZM79.645 23.9292C79.0642 23.9133 78.4986 24.1632 78.0535 24.6324C77.597 25.1253 77.2748 25.7856 77.1321 26.5206H82.1384C81.9835 25.7956 81.6585 25.1462 81.2056 24.657C80.7741 24.1818 80.2186 23.9228 79.645 23.9292Z" fill="black"/>
<path d="M86.1758 33.852V21.4324H88.8791V22.7906C89.1898 22.2706 89.6004 21.8494 90.0757 21.563C90.559 21.2808 91.0899 21.1378 91.6268 21.1453C91.8469 21.157 92.0661 21.1848 92.2834 21.2285C92.4466 21.2612 92.6038 21.3282 92.7479 21.4264V24.2972C92.5384 24.1812 92.3179 24.0968 92.0913 24.0458C91.8501 23.9899 91.6049 23.9621 91.3593 23.9626C90.8479 23.9572 90.3452 24.1223 89.9066 24.4398C89.4561 24.7697 89.0955 25.2515 88.8693 25.8257V33.8599L86.1758 33.852Z" fill="black"/>
<path d="M98.766 32.8316C99.2903 32.8318 99.809 32.6983 100.29 32.4397C100.798 32.1626 101.261 31.7731 101.656 31.2902L102.566 32.5087C102.049 33.1199 101.445 33.6086 100.785 33.9506C100.134 34.2913 99.4335 34.466 98.7265 34.4644C98.0489 34.4686 97.3777 34.302 96.754 33.9749C96.1515 33.6656 95.6063 33.2082 95.1513 32.6305C94.2069 31.4146 93.6818 29.7931 93.6866 28.108C93.6819 27.2564 93.8161 26.4124 94.0812 25.6263C94.3322 24.8765 94.6952 24.1917 95.1513 23.6077C95.608 23.0296 96.1526 22.5686 96.754 22.2512C97.3763 21.9173 98.048 21.7465 98.7265 21.7496C99.4428 21.7512 100.152 21.9257 100.814 22.2633C101.478 22.5953 102.085 23.0774 102.606 23.6849L101.675 25.0069C101.287 24.5079 100.823 24.1089 100.309 23.8331C99.8176 23.5612 99.2851 23.4194 98.7462 23.4168C98.2555 23.4137 97.7698 23.539 97.3211 23.7844C96.8868 24.019 96.4955 24.3595 96.1704 24.7856C95.8417 25.2187 95.5828 25.7253 95.4077 26.2782C95.0362 27.4711 95.0397 28.7926 95.4176 29.9824C95.5952 30.5359 95.8575 31.042 96.1901 31.473C96.5169 31.8941 96.908 32.2309 97.3408 32.464C97.7898 32.7084 98.2753 32.8337 98.766 32.8316Z" fill="black"/>
<path d="M103.076 28.1001C103.073 27.2471 103.204 26.4017 103.463 25.6136C103.706 24.8591 104.063 24.1715 104.513 23.5887C104.971 23.006 105.515 22.5434 106.114 22.2277C106.713 21.912 107.356 21.7495 108.005 21.7495C108.655 21.7495 109.297 21.912 109.897 22.2277C110.496 22.5434 111.04 23.006 111.497 23.5887C111.948 24.1711 112.305 24.8588 112.548 25.6136C112.807 26.4014 112.938 27.247 112.934 28.1001C112.94 28.9613 112.808 29.815 112.548 30.611C112.305 31.3657 111.948 32.0535 111.497 32.6358C111.05 33.2074 110.52 33.6634 109.935 33.9783C109.327 34.305 108.673 34.4704 108.013 34.4643C107.362 34.4695 106.718 34.311 106.116 33.9981C105.515 33.6852 104.969 33.2242 104.51 32.6419C104.06 32.0589 103.703 31.3714 103.459 30.617C103.2 29.8187 103.07 28.963 103.076 28.1001ZM108.011 32.8626C108.486 32.8655 108.956 32.7406 109.39 32.4961C109.815 32.2594 110.197 31.9148 110.512 31.4837C110.832 31.0434 111.084 30.531 111.255 29.9731C111.614 28.7712 111.614 27.4453 111.255 26.2433C111.086 25.6877 110.833 25.1784 110.512 24.7429C110.195 24.3186 109.813 23.9791 109.39 23.7447C108.956 23.5029 108.486 23.3781 108.011 23.3781C107.536 23.3781 107.066 23.5029 106.631 23.7447C106.208 23.9786 105.827 24.3182 105.51 24.7429C105.187 25.1795 104.932 25.6884 104.757 26.2433C104.572 26.8342 104.48 27.4649 104.486 28.1001C104.482 28.7379 104.574 29.3708 104.757 29.965C104.927 30.5228 105.179 31.0352 105.499 31.4756C105.813 31.9072 106.195 32.252 106.62 32.488C107.058 32.7348 107.532 32.8624 108.011 32.8626Z" fill="black"/>
<path d="M114.559 34.2152V22.003H116.068V23.4324C116.453 22.8903 116.936 22.4608 117.483 22.1771C118.059 21.8857 118.681 21.7402 119.307 21.75C120.468 21.75 121.417 22.1886 122.155 23.0659C122.892 23.9432 123.261 25.081 123.261 26.4793V34.2071H121.765V26.8539C121.765 25.7809 121.506 24.9272 120.987 24.2928C120.469 23.6585 119.772 23.3419 118.897 23.3433C118.325 23.3356 117.76 23.5058 117.26 23.8373C116.769 24.1667 116.362 24.6462 116.08 25.2261V34.2212L114.559 34.2152Z" fill="black"/>
<path d="M126.185 31.4473V23.3251H124.2V21.7566H126.185V18.5905L127.527 18.1187V21.7566H130.303V23.3251H127.527V30.9817C127.527 31.6466 127.638 32.1239 127.858 32.4136C128.078 32.7034 128.44 32.8503 128.942 32.8503C129.174 32.8536 129.405 32.828 129.633 32.7737C129.855 32.7164 130.073 32.6334 130.285 32.5254V34.1457C130.031 34.2678 129.767 34.3504 129.5 34.3919C129.223 34.4407 128.944 34.4655 128.665 34.4664C127.868 34.4664 127.257 34.2091 126.832 33.6946C126.408 33.18 126.192 32.4309 126.185 31.4473Z" fill="black"/>
<path d="M139.884 32.9425C139.368 33.4314 138.794 33.8167 138.185 34.0846C137.561 34.345 136.907 34.4732 136.25 34.464C135.574 34.4699 134.904 34.3027 134.28 33.9724C133.684 33.6611 133.143 33.2021 132.689 32.6223C131.995 31.7062 131.525 30.5562 131.336 29.3105C131.146 28.0648 131.246 26.7764 131.621 25.6002C131.86 24.8551 132.206 24.172 132.64 23.5852C133.078 23.0034 133.605 22.5406 134.189 22.225C134.773 21.9094 135.402 21.7477 136.037 21.7496C136.664 21.7449 137.283 21.9126 137.853 22.2411C138.404 22.5608 138.898 23.0204 139.304 23.5913C139.719 24.1844 140.047 24.8669 140.271 25.6063C140.514 26.397 140.636 27.2384 140.631 28.0864V28.6513H132.651C132.734 29.8097 133.156 30.887 133.835 31.6719C134.501 32.4641 135.386 32.8958 136.3 32.8752C136.802 32.8751 137.3 32.7753 137.777 32.5795C138.219 32.4081 138.628 32.1242 138.98 31.7453L139.884 32.9425ZM136.002 23.3404C135.19 23.326 134.406 23.714 133.817 24.4214C133.199 25.1508 132.803 26.1331 132.701 27.1951H139.206C139.091 26.1536 138.704 25.1904 138.108 24.4581C137.834 24.1024 137.506 23.8201 137.145 23.6281C136.783 23.436 136.394 23.3382 136.002 23.3404Z" fill="black"/>
<path d="M142.27 34.2212V22.0031H143.7V23.4332C144.063 22.8909 144.52 22.4611 145.035 22.1773C145.579 21.8859 146.165 21.7404 146.757 21.75C147.852 21.75 148.747 22.1888 149.443 23.0666C150.139 23.9443 150.488 25.0826 150.489 26.4816V34.2131H149.077V26.8564C149.077 25.7828 148.832 24.9287 148.342 24.294C147.851 23.6594 147.194 23.3427 146.369 23.3441C145.826 23.3323 145.289 23.5006 144.813 23.8322C144.351 24.1624 143.967 24.642 143.7 25.2217V34.2212H142.27Z" fill="black"/>
<path d="M153.882 31.4456V23.3245H151.897V21.7561H153.882V18.5904L155.224 18.1187V21.7561H158V23.3245H155.224V30.98C155.224 31.6449 155.334 32.1222 155.554 32.4118C155.776 32.7015 156.136 32.8484 156.64 32.8484C156.871 32.8518 157.101 32.8261 157.328 32.7718C157.551 32.7146 157.77 32.6315 157.982 32.5236V34.1436C157.729 34.2656 157.467 34.3489 157.2 34.3919C156.923 34.4407 156.643 34.4655 156.363 34.4664C155.566 34.4664 154.956 34.2092 154.531 33.6947C154.107 33.1802 153.89 32.4305 153.882 31.4456Z" fill="black"/>
<path d="M15.4513 22.2483C15.6697 22.1496 15.8589 21.9659 15.9929 21.7224C16.127 21.479 16.1991 21.1879 16.1995 20.8893V19.6389C16.1995 19.2566 16.0819 18.89 15.8726 18.6196C15.6633 18.3492 15.3794 18.1971 15.0832 18.1967H10.6915C10.8881 17.4354 11.0935 16.7108 11.3021 16.0257C11.702 14.8058 12.1493 13.6126 12.6422 12.4506C14.8266 7.31074 17.0197 4.92687 17.1115 4.82819C17.1823 4.76224 17.27 4.73356 17.3567 4.74799C17.4433 4.76241 17.5225 4.81886 17.5781 4.90586C17.6337 4.99287 17.6615 5.10392 17.656 5.21648C17.6505 5.32903 17.612 5.43466 17.5483 5.51191C17.5145 5.54716 15.3377 7.92538 13.2232 12.9215C12.7323 14.0852 12.2883 15.2808 11.8929 16.5036L11.929 16.5135H11.9661L12.0218 16.5233C12.8715 16.6826 13.8163 16.3965 14.4421 16.1371C14.6724 16.0557 14.8968 15.9486 15.1127 15.8171L15.1488 15.7959C15.231 15.7499 15.3109 15.6972 15.388 15.638C15.4503 15.5855 15.4984 15.5092 15.5256 15.4198C15.5528 15.3304 15.5578 15.2322 15.5398 15.139L15.4644 14.7443C15.4494 14.6667 15.4468 14.5861 15.4568 14.5072C15.4668 14.4284 15.4893 14.353 15.5227 14.2857C15.5562 14.2185 15.6 14.1608 15.6514 14.1163C15.7028 14.0717 15.7607 14.0412 15.8216 14.0267L16.1416 13.9492C16.308 13.8904 16.459 13.7744 16.5785 13.6137C17.3878 12.2039 21.5698 4.85216 21.1329 0.542605C21.1309 0.527499 21.1252 0.513642 21.1165 0.503133C21.1089 0.496084 21.0849 0.503133 21.0849 0.503133C14.7884 1.32078 12.0502 8.12556 11.455 9.48172C11.3937 9.62266 11.3754 9.78807 11.4036 9.94552L11.4768 10.3543C11.4901 10.4318 11.4911 10.5119 11.4798 10.5898C11.4684 10.6678 11.4449 10.7419 11.4107 10.8078C11.3765 10.8737 11.3323 10.93 11.2808 10.9732C11.2292 11.0164 11.1715 11.0457 11.1109 11.0592L10.7996 11.1283C10.7262 11.1442 10.6585 11.1893 10.6058 11.2573C10.5532 11.3253 10.5182 11.4127 10.5058 11.5075C10.4903 11.6227 10.4801 11.739 10.4753 11.8557V11.8487V11.9008C10.4675 12.2082 10.4814 12.5158 10.5168 12.82C10.5687 13.5604 10.6943 14.2891 10.8903 14.9881C10.5539 16.0295 10.2466 17.0994 9.96849 18.1981H5.10821C4.81216 18.1988 4.52841 18.3511 4.31917 18.6214C4.10993 18.8917 3.99227 19.2581 3.99198 19.6403V20.8907C3.99243 21.1967 4.06821 21.4946 4.20838 21.7414C4.34855 21.9882 4.54585 22.1711 4.77181 22.2638L0.506781 27.5714C0.346872 27.7716 0.219645 28.011 0.132605 28.2757C0.0455649 28.5403 0.000474293 28.8248 0 29.1123V36.3667C0 37.1145 0.230143 37.8317 0.639796 38.3604C1.04945 38.8892 1.60506 39.1862 2.18439 39.1862H18.0529C18.6323 39.1862 19.1879 38.8892 19.5975 38.3604C20.0072 37.8317 20.2373 37.1145 20.2373 36.3667V29.1151C20.2369 28.8276 20.1918 28.5431 20.1047 28.2785C20.0177 28.0138 19.8905 27.7744 19.7305 27.5742L15.4513 22.2483ZM19.5383 29.1151V30.0864C18.0883 31.3362 16.4065 32.0652 14.666 32.1985C12.9254 32.3318 11.1887 31.8646 9.63427 30.8448C9.56874 30.7997 9.5043 30.7546 9.43768 30.7109C9.28805 30.6136 9.13404 30.5192 8.98223 30.4289L8.87301 30.3669C9.01577 27.6613 9.32364 24.9745 9.79374 22.3314H14.1254C14.3739 22.3312 14.6127 22.4556 14.7916 22.6782L19.2467 28.2255C19.3389 28.3412 19.4122 28.4794 19.4622 28.6322C19.5123 28.785 19.5382 28.9492 19.5383 29.1151ZM15.0832 19.0989C15.194 19.0993 15.3001 19.1563 15.3783 19.2576C15.4565 19.3588 15.5005 19.4959 15.5005 19.6389V20.8893C15.5005 21.0321 15.4565 21.1691 15.3783 21.2701C15.3 21.3711 15.1939 21.4278 15.0832 21.4278H9.96084C10.1196 20.6186 10.2881 19.8423 10.4665 19.0989H15.0832ZM4.68444 19.6389C4.68444 19.4959 4.72836 19.3588 4.80657 19.2576C4.88478 19.1563 4.9909 19.0993 5.10166 19.0989H9.74131C9.58913 19.7455 9.44678 20.4034 9.31426 21.0725C9.29023 21.1938 9.26839 21.315 9.24545 21.4348H5.10056C4.99 21.4345 4.88404 21.3776 4.80586 21.2767C4.72768 21.1758 4.68363 21.039 4.68334 20.8963L4.68444 19.6389ZM0.9939 28.2241L5.44897 22.6768C5.62785 22.4542 5.86671 22.3298 6.11521 22.33H9.07944C8.63867 24.8655 8.34443 27.4397 8.19913 30.0314C5.76168 28.9258 3.09556 29.0049 0.700099 30.2541V29.1151C0.700211 28.9488 0.726178 28.7843 0.776457 28.6313C0.826737 28.4782 0.900309 28.3398 0.99281 28.2241H0.9939Z" fill="black"/>
</svg>
