<svg width="158" height="31" viewBox="0 0 158 31" fill="none" xmlns="http://www.w3.org/2000/svg">
<path d="M27.4958 30.082V16.1402H30.0394V16.9619C30.4265 16.645 30.8672 16.402 31.3401 16.2449C31.8206 16.0857 32.3231 16.0054 32.8286 16.0069C33.499 16.0027 34.1629 16.1388 34.7789 16.4067C35.3736 16.6641 35.9143 17.0339 36.3724 17.4965C36.8286 17.9615 37.1902 18.5129 37.4367 19.1192C37.6972 19.7572 37.8287 20.4418 37.8233 21.1322C37.8284 21.8215 37.6936 22.5045 37.4273 23.1389C37.1757 23.7447 36.8111 24.2957 36.3536 24.7616C35.8924 25.2264 35.3443 25.5932 34.7414 25.8403C34.111 26.1035 33.4352 26.2367 32.7535 26.2321C32.277 26.2329 31.8028 26.1656 31.3448 26.0323C30.8948 25.9024 30.466 25.7063 30.0722 25.4501V30.09L27.4958 30.082ZM32.4139 18.2404C31.9693 18.2364 31.5279 18.3177 31.1131 18.48C30.7215 18.6323 30.3678 18.87 30.0769 19.1763V23.0929C30.3708 23.384 30.7202 23.6112 31.1037 23.7607C31.5208 23.9273 31.9656 24.0113 32.4139 24.0082C32.7908 24.0165 33.1654 23.9473 33.5152 23.8047C33.8649 23.6621 34.1825 23.4491 34.4487 23.1785C34.9809 22.6306 35.2784 21.892 35.2766 21.1231C35.2749 20.3542 34.974 19.6171 34.4393 19.0716C34.174 18.8024 33.8579 18.5901 33.51 18.4473C33.162 18.3045 32.7892 18.2341 32.4139 18.2404Z" fill="white"/>
<path d="M48.4381 24.9015C47.3388 25.8613 45.9305 26.3711 44.4849 26.3324C43.7753 26.3381 43.0715 26.2014 42.4135 25.9302C41.7945 25.6783 41.2283 25.3081 40.7451 24.8395C40.2639 24.3648 39.8818 23.7955 39.6218 23.166C39.3618 22.5364 39.2293 21.8595 39.2323 21.1762C39.2278 20.4837 39.3585 19.7973 39.6167 19.1569C39.9947 18.2197 40.6381 17.4191 41.4644 16.8579C42.2908 16.2967 43.2624 16.0005 44.2546 16.0072C44.9154 15.9984 45.5703 16.1344 46.1751 16.4063C46.7555 16.6719 47.2783 17.0529 47.7128 17.5272C48.155 18.0188 48.4987 18.594 48.7244 19.2206C48.9722 19.9038 49.0961 20.6273 49.0902 21.3559V22.0443H41.8189C41.9801 22.6528 42.3383 23.1875 42.8352 23.5611C43.3436 23.9477 43.9635 24.1502 44.597 24.1367C45.0056 24.1398 45.4115 24.0682 45.7954 23.9252C46.1513 23.7976 46.4772 23.5956 46.7525 23.3322L48.4381 24.9015ZM44.2032 18.1632C43.6494 18.1511 43.1102 18.3449 42.6858 18.7086C42.2496 19.0907 41.9416 19.6028 41.8049 20.1729H46.5829C46.4358 19.6104 46.1254 19.1066 45.6927 18.7277C45.2796 18.358 44.7476 18.1571 44.1986 18.1632H44.2032Z" fill="white"/>
<path d="M50.968 30.082V16.1402H53.5115V16.9619C53.8987 16.645 54.3394 16.402 54.8123 16.2449C55.2928 16.0857 55.7953 16.0054 56.3008 16.0069C56.9716 16.0027 57.6361 16.1388 58.2527 16.4067C58.846 16.6647 59.3857 17.0345 59.8429 17.4965C60.2997 17.9611 60.6614 18.5126 60.9073 19.1192C61.1691 19.7569 61.3011 20.4416 61.2955 21.1322C61.3005 21.8215 61.1657 22.5045 60.8995 23.1389C60.6479 23.7447 60.2833 24.2957 59.8257 24.7616C59.3649 25.2261 58.8173 25.5928 58.2151 25.8403C57.5842 26.1035 56.9079 26.2367 56.2257 26.2321C55.7492 26.2329 55.2749 26.1656 54.817 26.0323C54.3669 25.9024 53.9382 25.7063 53.5444 25.4501V30.09L50.968 30.082ZM55.886 18.2404C55.4419 18.2362 55.0011 18.3175 54.5869 18.48C54.1948 18.6322 53.8405 18.87 53.5491 19.1763V23.0929C53.8436 23.384 54.1935 23.6112 54.5775 23.7607C54.994 23.9275 55.4382 24.0115 55.886 24.0082C56.2629 24.0165 56.6376 23.9473 56.9873 23.8047C57.3371 23.6621 57.6546 23.4491 57.9208 23.1785C58.4542 22.6312 58.7525 21.8924 58.7507 21.1231C58.749 20.3539 58.4473 19.6165 57.9114 19.0716C57.6461 18.8024 57.3301 18.5901 56.9821 18.4473C56.6342 18.3045 56.2614 18.2341 55.886 18.2404Z" fill="white"/>
<path d="M62.7039 30.09V16.1403H65.3642V16.9624C65.7689 16.6454 66.2296 16.4023 66.7239 16.245C67.2261 16.0858 67.7514 16.0054 68.2798 16.0069C68.9805 16.0027 69.6745 16.1389 70.3185 16.4069C70.9398 16.6649 71.505 17.0349 71.9841 17.4973C72.4604 17.9631 72.8383 18.5146 73.0966 19.121C73.3689 19.7594 73.5064 20.4443 73.5008 21.1351C73.5052 21.8247 73.3644 22.508 73.0868 23.1429C72.8222 23.7455 72.4419 24.2939 71.9661 24.7586C71.4835 25.223 70.9106 25.5899 70.2808 25.8379C69.6219 26.1012 68.9155 26.2345 68.2029 26.23C67.7048 26.2308 67.2091 26.1634 66.7304 26.03C66.26 25.9001 65.8118 25.7038 65.4002 25.4475V30.09H62.7039ZM67.8463 18.2417C67.3815 18.2376 66.9202 18.319 66.4866 18.4813C66.0773 18.6338 65.7075 18.8716 65.4035 19.1781V23.0969C65.7104 23.3884 66.0757 23.6159 66.4768 23.7651C66.9128 23.9318 67.3776 24.0158 67.8463 24.0127C68.2403 24.0214 68.632 23.9523 68.9977 23.8096C69.3633 23.6669 69.6952 23.4536 69.9732 23.1826C70.5308 22.6349 70.8426 21.8957 70.8407 21.126C70.8389 20.3563 70.5235 19.6185 69.9634 19.0734C69.6863 18.8037 69.356 18.5911 68.9922 18.4482C68.6284 18.3052 68.2387 18.235 67.8463 18.2417Z" fill="white"/>
<path d="M84.0806 24.9018C82.9284 25.8618 81.4521 26.3714 79.9369 26.3324C79.1939 26.338 78.457 26.2014 77.7681 25.9302C77.1192 25.6792 76.5257 25.309 76.02 24.8398C75.5255 24.3758 75.1318 23.8196 74.8622 23.2042C74.5796 22.5643 74.4358 21.8743 74.4398 21.1776C74.4352 20.4853 74.5721 19.7991 74.8426 19.159C75.0965 18.5432 75.4738 17.9829 75.9522 17.5108C76.4307 17.0386 77.0009 16.6641 77.6295 16.4091C78.2854 16.1401 78.9905 16.0033 79.7021 16.007C80.3954 16.0021 81.0816 16.1425 81.7144 16.4186C82.322 16.6841 82.8692 17.0651 83.3239 17.5392C83.7878 18.0303 84.1479 18.6055 84.3839 19.2321C84.6442 19.9149 84.7741 20.6384 84.7671 21.3668V22.055H77.15C77.3186 22.6609 77.6921 23.1935 78.21 23.5667C78.7426 23.9531 79.3921 24.1555 80.056 24.1421C80.4841 24.145 80.9093 24.0734 81.3116 23.9306C81.6842 23.8034 82.0253 23.6014 82.3129 23.3378L84.0806 24.9018ZM79.645 18.1655C79.0642 18.1531 78.4986 18.3469 78.0535 18.7107C77.597 19.0929 77.2748 19.6048 77.1321 20.1746H82.1384C81.9835 19.6126 81.6585 19.109 81.2056 18.7298C80.7741 18.3614 80.2186 18.1605 79.645 18.1655Z" fill="white"/>
<path d="M86.176 25.8589V16.2296H88.8794V17.2827C89.19 16.8795 89.6006 16.553 90.076 16.3309C90.5592 16.1121 91.0902 16.0012 91.6271 16.0071C91.8471 16.0161 92.0664 16.0377 92.2836 16.0715C92.4469 16.0969 92.6041 16.1488 92.7481 16.225V18.4508C92.5387 18.3609 92.3181 18.2954 92.0916 18.2559C91.8503 18.2126 91.6052 18.191 91.3595 18.1914C90.8481 18.1872 90.3454 18.3152 89.9069 18.5613C89.4564 18.8172 89.0958 19.1907 88.8695 19.6359V25.865L86.176 25.8589Z" fill="white"/>
<path d="M98.7662 25.0678C99.2905 25.0679 99.8093 24.9645 100.29 24.7639C100.798 24.5491 101.261 24.2471 101.656 23.8727L102.567 24.8175C102.049 25.2913 101.445 25.6702 100.785 25.9354C100.134 26.1995 99.4338 26.335 98.7268 26.3337C98.0491 26.337 97.378 26.2079 96.7542 25.9543C96.1518 25.7144 95.6065 25.3598 95.1515 24.9119C94.2071 23.9692 93.682 22.712 93.6869 21.4055C93.6822 20.7452 93.8163 20.0909 94.0814 19.4814C94.3325 18.9 94.6955 18.3691 95.1515 17.9163C95.6082 17.4681 96.1529 17.1106 96.7542 16.8645C97.3766 16.6056 98.0482 16.4732 98.7268 16.4756C99.4431 16.4769 100.152 16.6122 100.814 16.874C101.478 17.1314 102.086 17.5052 102.606 17.9761L101.676 19.0012C101.288 18.6142 100.823 18.3049 100.31 18.0911C99.8178 17.8803 99.2854 17.7703 98.7465 17.7683C98.2558 17.7659 97.77 17.863 97.3213 18.0533C96.8871 18.2351 96.4957 18.4992 96.1707 18.8295C95.8419 19.1653 95.5831 19.5581 95.4079 19.9868C95.0364 20.9117 95.0399 21.9363 95.4178 22.8587C95.5955 23.2879 95.8578 23.6803 96.1904 24.0144C96.5171 24.3409 96.9082 24.6021 97.341 24.7828C97.79 24.9723 98.2756 25.0694 98.7662 25.0678Z" fill="white"/>
<path d="M103.076 21.3994C103.073 20.738 103.204 20.0826 103.462 19.4715C103.706 18.8866 104.063 18.3534 104.513 17.9016C104.97 17.4497 105.514 17.0911 106.113 16.8464C106.713 16.6016 107.356 16.4756 108.005 16.4756C108.654 16.4756 109.297 16.6016 109.896 16.8464C110.496 17.0911 111.04 17.4497 111.497 17.9016C111.948 18.3531 112.305 18.8863 112.548 19.4715C112.807 20.0823 112.938 20.7379 112.934 21.3994C112.939 22.067 112.808 22.729 112.548 23.3461C112.305 23.9313 111.948 24.4645 111.497 24.916C111.05 25.3591 110.519 25.7127 109.935 25.9569C109.327 26.2102 108.673 26.3384 108.012 26.3337C107.362 26.3377 106.717 26.2148 106.116 25.9722C105.515 25.7296 104.969 25.3722 104.51 24.9207C104.06 24.4687 103.703 23.9356 103.459 23.3508C103.2 22.7318 103.07 22.0683 103.076 21.3994ZM108.011 25.0918C108.486 25.0941 108.956 24.9972 109.39 24.8077C109.815 24.6242 110.196 24.357 110.511 24.0227C110.832 23.6814 111.084 23.2841 111.255 22.8516C111.614 21.9197 111.614 20.8916 111.255 19.9598C111.085 19.529 110.833 19.1341 110.511 18.7964C110.194 18.4674 109.813 18.2042 109.39 18.0225C108.955 17.835 108.485 17.7383 108.011 17.7383C107.536 17.7383 107.066 17.835 106.631 18.0225C106.208 18.2039 105.827 18.4671 105.51 18.7964C105.187 19.1349 104.932 19.5295 104.757 19.9598C104.572 20.4179 104.48 20.9068 104.486 21.3994C104.481 21.8938 104.573 22.3846 104.757 22.8453C104.927 23.2777 105.179 23.675 105.498 24.0164C105.813 24.3511 106.195 24.6184 106.62 24.8014C107.058 24.9927 107.531 25.0917 108.011 25.0918Z" fill="white"/>
<path d="M114.559 26.1405V16.6722H116.069V17.7804C116.453 17.3601 116.937 17.0271 117.483 16.8071C118.06 16.5812 118.681 16.4684 119.308 16.4759C120.469 16.4759 121.418 16.816 122.155 17.4962C122.893 18.1764 123.262 19.0586 123.262 20.1427V26.1342H121.766V20.4331C121.766 19.6012 121.506 18.9393 120.988 18.4475C120.469 17.9556 119.772 17.7102 118.898 17.7113C118.325 17.7053 117.76 17.8373 117.26 18.0943C116.77 18.3497 116.362 18.7215 116.081 19.1711V26.1452L114.559 26.1405Z" fill="white"/>
<path d="M126.185 23.9942V17.6969H124.2V16.4807H126.185V14.026L127.527 13.6602V16.4807H130.303V17.6969H127.527V23.6332C127.527 24.1487 127.638 24.5188 127.858 24.7434C128.078 24.968 128.44 25.0819 128.942 25.0819C129.174 25.0845 129.405 25.0647 129.633 25.0226C129.855 24.9782 130.073 24.9138 130.285 24.8301V26.0863C130.031 26.181 129.767 26.245 129.5 26.2772C129.223 26.315 128.944 26.3343 128.665 26.335C127.868 26.335 127.257 26.1355 126.832 25.7365C126.408 25.3376 126.192 24.7568 126.185 23.9942Z" fill="white"/>
<path d="M139.884 25.1538C139.367 25.5329 138.794 25.8315 138.185 26.0393C137.561 26.2412 136.907 26.3406 136.25 26.3334C135.574 26.338 134.903 26.2084 134.28 25.9523C133.683 25.711 133.142 25.355 132.688 24.9055C131.995 24.1952 131.525 23.3036 131.335 22.3378C131.146 21.3719 131.245 20.373 131.621 19.4611C131.86 18.8834 132.205 18.3538 132.64 17.8988C133.078 17.4478 133.605 17.0889 134.189 16.8443C134.773 16.5996 135.402 16.4742 136.037 16.4757C136.663 16.472 137.283 16.602 137.852 16.8567C138.404 17.1046 138.898 17.4609 139.304 17.9036C139.719 18.3634 140.046 18.8926 140.271 19.4659C140.513 20.0789 140.635 20.7313 140.63 21.3887V21.8267H132.651C132.734 22.7248 133.156 23.5601 133.835 24.1686C134.501 24.7828 135.385 25.1176 136.3 25.1016C136.801 25.1015 137.3 25.0241 137.777 24.8723C138.218 24.7395 138.628 24.5194 138.979 24.2256L139.884 25.1538ZM136.001 17.7091C135.19 17.6979 134.405 17.9987 133.817 18.5471C133.198 19.1127 132.803 19.8743 132.701 20.6977H139.205C139.09 19.8902 138.704 19.1434 138.107 18.5756C137.834 18.2998 137.506 18.081 137.144 17.9321C136.783 17.7832 136.394 17.7073 136.001 17.7091Z" fill="white"/>
<path d="M142.27 26.1452V16.6722H143.701V17.781C144.063 17.3605 144.52 17.0273 145.035 16.8073C145.579 16.5814 146.166 16.4685 146.757 16.4759C147.852 16.4759 148.748 16.8162 149.444 17.4967C150.14 18.1773 150.488 19.0598 150.489 20.1445V26.1389H149.077V20.435C149.077 19.6027 148.832 18.9405 148.342 18.4484C147.852 17.9563 147.194 17.7108 146.37 17.7119C145.826 17.7027 145.29 17.8332 144.814 18.0904C144.351 18.3463 143.967 18.7182 143.701 19.1677V26.1452H142.27Z" fill="white"/>
<path d="M153.882 23.9929V17.6963H151.897V16.4804H153.882V14.0259L155.224 13.6602V16.4804H158V17.6963H155.224V23.6319C155.224 24.1474 155.334 24.5174 155.554 24.742C155.775 24.9666 156.136 25.0805 156.64 25.0805C156.87 25.0831 157.101 25.0632 157.328 25.0211C157.551 24.9768 157.769 24.9124 157.982 24.8286V26.0847C157.729 26.1793 157.466 26.2439 157.2 26.2772C156.922 26.315 156.643 26.3343 156.363 26.335C155.566 26.335 154.955 26.1355 154.531 25.7366C154.107 25.3377 153.89 24.7565 153.882 23.9929Z" fill="white"/>
<path d="M15.4513 16.862C15.6697 16.7855 15.8589 16.643 15.9929 16.4543C16.127 16.2656 16.1991 16.0398 16.1995 15.8083V14.8388C16.1995 14.5425 16.0819 14.2582 15.8726 14.0486C15.6633 13.8389 15.3794 13.721 15.0832 13.7207H10.6915C10.8881 13.1305 11.0935 12.5687 11.3021 12.0375C11.702 11.0916 12.1493 10.1665 12.6422 9.26561C14.8266 5.28053 17.0197 3.43227 17.1115 3.35575C17.1823 3.30462 17.27 3.28239 17.3567 3.29357C17.4433 3.30475 17.5225 3.34852 17.5781 3.41598C17.6337 3.48343 17.6615 3.56953 17.656 3.6568C17.6505 3.74407 17.612 3.82596 17.5483 3.88586C17.5145 3.91319 15.3377 5.75708 13.2232 9.63067C12.7323 10.5329 12.2883 11.4599 11.8929 12.408L11.929 12.4156H11.9661L12.0218 12.4233C12.8715 12.5468 13.8163 12.3249 14.4421 12.1238C14.6724 12.0607 14.8968 11.9777 15.1127 11.8757L15.1488 11.8593C15.231 11.8236 15.3109 11.7828 15.388 11.7369C15.4503 11.6962 15.4984 11.637 15.5256 11.5677C15.5528 11.4984 15.5578 11.4222 15.5398 11.35L15.4644 11.0439C15.4494 10.9838 15.4468 10.9213 15.4568 10.8601C15.4668 10.799 15.4893 10.7406 15.5227 10.6884C15.5562 10.6363 15.6 10.5916 15.6514 10.557C15.7028 10.5225 15.7607 10.4989 15.8216 10.4876L16.1416 10.4275C16.308 10.3819 16.459 10.292 16.5785 10.1673C17.3878 9.07434 21.5698 3.37434 21.1329 0.0330328C21.1309 0.0213205 21.1252 0.0105769 21.1165 0.00242889C21.1089 -0.00303611 21.0849 0.00242889 21.0849 0.00242889C14.7884 0.636369 12.0502 5.91228 11.455 6.96375C11.3937 7.07302 11.3754 7.20127 11.4036 7.32335L11.4768 7.64032C11.4901 7.70035 11.4911 7.76246 11.4798 7.82289C11.4684 7.88333 11.4449 7.94082 11.4107 7.99191C11.3765 8.043 11.3323 8.08661 11.2808 8.12011C11.2292 8.15361 11.1715 8.1763 11.1109 8.18682L10.7996 8.24038C10.7262 8.25275 10.6585 8.28771 10.6058 8.3404C10.5532 8.3931 10.5182 8.46091 10.5058 8.53439C10.4903 8.6237 10.4801 8.71385 10.4753 8.80437V8.7989V8.83934C10.4675 9.07765 10.4814 9.31618 10.5168 9.55198C10.5687 10.126 10.6943 10.691 10.8903 11.233C10.5539 12.0404 10.2466 12.87 9.96849 13.7218H5.10821C4.81216 13.7224 4.52841 13.8404 4.31917 14.05C4.10993 14.2596 3.99227 14.5436 3.99198 14.8399V15.8094C3.99243 16.0467 4.06821 16.2776 4.20838 16.469C4.34855 16.6603 4.54585 16.8022 4.77181 16.874L0.506781 20.9891C0.346872 21.1443 0.219645 21.33 0.132605 21.5351C0.0455649 21.7403 0.000474293 21.9609 0 22.1838V27.8084C0 28.3881 0.230143 28.9442 0.639796 29.3541C1.04945 29.7641 1.60506 29.9944 2.18439 29.9944H18.0529C18.6323 29.9944 19.1879 29.7641 19.5975 29.3541C20.0072 28.9442 20.2373 28.3881 20.2373 27.8084V22.186C20.2369 21.9631 20.1918 21.7425 20.1047 21.5373C20.0177 21.3322 19.8905 21.1465 19.7305 20.9913L15.4513 16.862ZM19.5383 22.186V22.9391C18.0883 23.9081 16.4065 24.4733 14.666 24.5767C12.9254 24.68 11.1887 24.3177 9.63427 23.5271C9.56874 23.4921 9.5043 23.4571 9.43768 23.4232C9.28805 23.3478 9.13404 23.2746 8.98223 23.2046L8.87301 23.1566C9.01577 21.0589 9.32364 18.9757 9.79374 16.9265H14.1254C14.3739 16.9263 14.6127 17.0227 14.7916 17.1953L19.2467 21.4963C19.3389 21.5859 19.4122 21.6931 19.4622 21.8116C19.5123 21.9301 19.5382 22.0573 19.5383 22.186ZM15.0832 14.4202C15.194 14.4205 15.3001 14.4647 15.3783 14.5432C15.4565 14.6217 15.5005 14.728 15.5005 14.8388V15.8083C15.5005 15.919 15.4565 16.0252 15.3783 16.1036C15.3 16.1819 15.1939 16.2258 15.0832 16.2258H9.96084C10.1196 15.5985 10.2881 14.9966 10.4665 14.4202H15.0832ZM4.68444 14.8388C4.68444 14.728 4.72836 14.6217 4.80657 14.5432C4.88478 14.4647 4.9909 14.4205 5.10166 14.4202H9.74131C9.58913 14.9215 9.44678 15.4316 9.31426 15.9504C9.29023 16.0444 9.26839 16.1384 9.24545 16.2313H5.10056C4.99 16.231 4.88404 16.1869 4.80586 16.1087C4.72768 16.0305 4.68363 15.9244 4.68334 15.8138L4.68444 14.8388ZM0.9939 21.4952L5.44897 17.1942C5.62785 17.0216 5.86671 16.9252 6.11521 16.9254H9.07944C8.63867 18.8912 8.34443 20.887 8.19913 22.8964C5.76168 22.0392 3.09556 22.1006 0.700099 23.0691V22.186C0.700211 22.0571 0.726178 21.9295 0.776457 21.8109C0.826737 21.6922 0.900309 21.5849 0.99281 21.4952H0.9939Z" fill="white"/>
</svg>
