<svg width="64" height="64" viewBox="0 0 64 64" fill="none" xmlns="http://www.w3.org/2000/svg">
<path d="M32 60C47.464 60 60 47.464 60 32C60 16.536 47.464 4 32 4C16.536 4 4 16.536 4 32C4 47.464 16.536 60 32 60Z" fill="#A399FF"/>
<path d="M32.0067 54.282C44.2651 54.282 54.2025 44.3447 54.2025 32.0863C54.2025 19.828 44.2651 9.89063 32.0067 9.89063C19.7484 9.89062 9.81104 19.828 9.81104 32.0863C9.81104 44.3447 19.7484 54.282 32.0067 54.282Z" fill="#ACA4FF"/>
<path d="M32.0067 49.7596C41.7674 49.7596 49.68 41.847 49.68 32.0863C49.68 22.3257 41.7674 14.4131 32.0067 14.4131C22.2461 14.4131 14.3335 22.3257 14.3335 32.0863C14.3335 41.847 22.2461 49.7596 32.0067 49.7596Z" fill="#BEB7FF"/>
<path d="M27.925 13.3632C27.0206 11.9705 24.8623 12.5488 24.7754 14.2072L24.1956 25.2691C24.1568 26.0108 23.6448 26.6431 22.9274 26.8353L12.2277 29.7022C10.6236 30.1321 10.5067 32.3634 12.0571 32.9585L22.3985 36.9282C23.0918 37.1944 23.5349 37.8767 23.496 38.6184L22.9163 49.6803C22.8294 51.3387 24.9154 52.1394 25.9605 50.8489L32.9316 42.2403C33.3989 41.6632 34.1848 41.4526 34.8782 41.7187L45.2195 45.6884C46.7699 46.2836 48.1761 44.5471 47.2716 43.1543L41.2386 33.8643C40.8341 33.2414 40.8767 32.4289 41.344 31.8518L48.3151 23.2432C49.3602 21.9526 48.1432 20.0787 46.5392 20.5085L35.8395 23.3755C35.1221 23.5677 34.3626 23.2761 33.9581 22.6533L27.925 13.3632Z" fill="#CC9700"/>
<path d="M28.4072 11.5127L25.9326 12.1758L26.5169 14.3567L28.9916 13.6936L28.4072 11.5127Z" fill="#CC9700"/>
<path d="M27.564 48.7822L24.0812 49.7154L24.6656 51.8963L28.1483 50.9631L27.564 48.7822Z" fill="#CC9700"/>
<path d="M48.7002 43.1191L46.2255 43.7822L46.8099 45.9631L49.2846 45.3L48.7002 43.1191Z" fill="#CC9700"/>
<path d="M30.2711 12.5285C29.3637 11.0965 27.1503 11.7098 27.1093 13.4045L26.8252 25.1269C26.8065 25.8994 26.2733 26.5639 25.5231 26.7495L16.8766 28.8887C15.2558 29.2897 15.1063 31.5354 16.6597 32.1476L25.6506 35.6916C26.3339 35.9609 26.7697 36.6356 26.7342 37.3692L26.1702 49.0396C26.0874 50.7545 28.297 51.5129 29.2847 50.1086L35.9673 40.6079C36.4527 39.9178 37.3681 39.6835 38.1254 40.0555L48.3943 45.1004C50.0047 45.8915 51.5944 43.9903 50.5307 42.5454L43.9689 33.6319C43.5007 32.9959 43.5276 32.1223 44.034 31.5163L51.3449 22.7675C52.432 21.4667 51.173 19.5458 49.5464 20.0235L38.5391 23.2561C37.8052 23.4716 37.0173 23.1749 36.608 22.5289L30.2711 12.5285Z" fill="#FFE599"/>
<path fill-rule="evenodd" clip-rule="evenodd" d="M28.5247 11.1005C29.303 10.8652 30.241 11.0904 30.783 11.925L37.26 21.8988C37.4936 22.2585 37.9302 22.4288 38.3449 22.3234C38.3456 22.3232 38.3464 22.323 38.3472 22.3228L47.3405 19.913L47.3616 19.9075L49.8446 19.2421C51.716 18.7407 53.1358 20.9269 51.9165 22.4326L44.4325 31.6747C44.1598 32.0114 44.135 32.4853 44.3709 32.8486L50.848 42.8224C51.6863 44.1132 50.8243 45.6316 49.5576 45.881L47.3049 46.4846C46.8896 46.6262 46.4191 46.6299 45.9497 46.4497L35.6649 42.5017L28.7319 51.0633C28.4158 51.4536 28.0071 51.6856 27.577 51.7708L25.3191 52.3758C24.0983 52.7901 22.5957 51.9064 22.6762 50.3709L23.2985 38.4949C23.3212 38.0622 23.0627 37.6642 22.6583 37.509L11.5558 33.2471C9.74709 32.5528 9.88352 29.9496 11.7549 29.4481L23.242 26.3702C23.6605 26.258 23.9592 25.8892 23.9819 25.4566L24.6042 13.5806C24.6564 12.5856 25.3575 11.9214 26.1502 11.7368L28.5247 11.1005ZM29.9443 12.4697C29.672 12.0503 29.2147 11.9345 28.8093 12.0592L28.8006 12.0619L26.3914 12.7074L26.3821 12.7095C25.968 12.8038 25.6291 13.1329 25.6029 13.6329L24.9805 25.5089C24.9351 26.3742 24.3378 27.1118 23.5009 27.3361L12.0138 30.414C11.0781 30.6648 11.0098 31.9664 11.9142 32.3136L23.0167 36.5754C23.8256 36.8859 24.3425 37.6819 24.2972 38.5472L23.6748 50.4232C23.6353 51.1757 24.3762 51.6474 25.0069 51.4257L25.0248 51.4194L27.3539 50.7954L27.3727 50.7918C27.5797 50.7531 27.785 50.6436 27.9547 50.434L35.345 41.3078L46.3081 45.5161C46.5602 45.6129 46.793 45.6049 46.9918 45.5347L47.0101 45.5283L49.3354 44.9052L49.3547 44.9017C50.0129 44.7797 50.4201 43.9997 50.0093 43.367L43.5323 33.3933C43.0604 32.6666 43.11 31.7187 43.6553 31.0454L51.1394 21.8033C51.749 21.0504 51.0391 19.9573 50.1034 20.208L47.6156 20.8746L47.5993 20.8789L38.5958 23.2914C37.7649 23.5047 36.8894 23.1642 36.4214 22.4434L29.9443 12.4697Z" fill="#7566FF"/>
<path d="M34.6918 21.5067C35.535 23.4314 35.5462 25.2862 34.7167 25.6496C33.8872 26.0131 32.5312 24.7474 31.688 22.8228C30.8447 20.8981 30.8336 19.0433 31.663 18.6799C32.4925 18.3164 33.8485 19.5821 34.6918 21.5067Z" fill="white"/>
<path d="M39.5064 25.1061C39.7972 25.7699 39.501 26.541 38.8448 26.8285C38.1886 27.116 37.4209 26.811 37.1301 26.1472C36.8393 25.4834 37.1355 24.7123 37.7916 24.4248C38.4478 24.1373 39.2155 24.4423 39.5064 25.1061Z" fill="white"/>
</svg>
